<svg width="3771" height="1355" viewBox="0 0 3771 1355" fill="none" xmlns="http://www.w3.org/2000/svg">
<path d="M768.546 143.289C962.633 116.862 1054.95 157.84 1116.32 388.801C1253.58 532.322 1277.6 620.302 1194.49 795.096C1206.83 1004.2 1149.92 1075.77 962.567 1137.68C819.972 1294.05 731.266 1312.47 556.412 1215.87C343.856 1221.7 276.697 1161.33 213.946 983.872C77.3139 864.453 41.7466 773.26 135.779 577.578C125.719 382.057 169.846 292.376 362.392 221.483C474.525 89.5725 567.009 79.3338 768.546 143.289Z" fill="#14120B"/>
<path fill-rule="evenodd" clip-rule="evenodd" d="M893.24 694.747C900.898 701.61 906.291 706.317 907.278 705.126C1002.91 579.908 845.314 274.005 687.56 439.616C622.422 407.832 538.437 385.256 472.894 427.229C363.958 497.333 380.065 656.958 478.844 726.616C499.12 740.777 544.388 761.142 544.388 761.142C544.388 761.142 579.086 675.034 619.118 675.034C625.799 675.034 622.78 680.405 609.591 703.872L608.886 705.126C538.969 829.922 566.087 992.054 729.736 1033.59C873.458 1069.44 965.727 900.799 920.119 792.932C906.599 761.072 866.534 705.63 837.878 675.034C836.81 673.894 835.688 672.741 834.587 671.613C829.843 666.745 825.493 662.276 827.411 660.61C841.534 648.343 872.675 676.291 891.679 693.347C892.21 693.822 892.732 694.288 893.24 694.747Z" fill="#FEF6E2" fill-opacity="0.9"/>
<path fill-rule="evenodd" clip-rule="evenodd" d="M719.435 742.718C689.796 710.344 637.092 722.418 677.367 764.304C709.247 797.457 750.438 790.82 719.435 742.718Z" fill="#14120B"/>
<path fill-rule="evenodd" clip-rule="evenodd" d="M795.698 714.296C811.097 729.255 767.848 790.567 751.546 776.731C721.756 751.453 775.311 694.488 795.698 714.296Z" fill="#14120B"/>
<path fill-rule="evenodd" clip-rule="evenodd" d="M744.359 523.848C750.727 515.514 761.519 506.343 768.869 502.978C776.87 499.439 778.171 499.09 785.677 498.473C799.791 497.364 814.932 502.258 828.336 512.383C845.106 525.095 850.591 533.855 848.789 544.918C847.08 555.026 837.047 563.993 827.516 563.99C819.945 563.927 815.09 561.856 808.147 555.463C799.41 547.574 790.893 543.114 787.873 544.854C783.805 547.455 779.14 553.472 776.018 560.471C769.923 573.731 766.574 578.581 761.421 581.474C747.582 589.252 729.566 580.13 727.696 564.471C726.731 555.662 734.474 536.845 744.359 523.848Z" fill="#14120B"/>
<path fill-rule="evenodd" clip-rule="evenodd" d="M744.359 523.848C750.727 515.514 761.519 506.343 768.869 502.978C776.87 499.439 778.171 499.09 785.677 498.473C799.791 497.364 814.932 502.258 828.336 512.383C845.106 525.095 850.591 533.855 848.789 544.918C847.08 555.026 837.047 563.993 827.516 563.99C819.945 563.927 815.09 561.856 808.147 555.463C799.41 547.574 790.893 543.114 787.873 544.854C783.805 547.455 779.14 553.472 776.018 560.471C769.923 573.731 766.574 578.581 761.421 581.474C747.582 589.252 729.566 580.13 727.696 564.471C726.731 555.662 734.474 536.845 744.359 523.848Z" fill="#14120B"/>
<path fill-rule="evenodd" clip-rule="evenodd" d="M510.416 557.341C516.982 548.748 528.11 539.292 535.689 535.822C543.938 532.173 545.28 531.813 553.018 531.177C567.571 530.034 583.183 535.079 597.004 545.52C614.295 558.626 619.95 567.659 618.092 579.066C616.33 589.487 605.985 598.734 596.158 598.73C588.351 598.665 583.346 596.531 576.187 589.938C567.178 581.804 558.397 577.205 555.282 578.999C551.088 581.682 546.279 587.886 543.059 595.102C536.775 608.774 533.321 613.775 528.009 616.757C513.74 624.778 495.163 615.372 493.235 599.227C492.24 590.143 500.225 570.741 510.416 557.341Z" fill="#14120B"/>
<path fill-rule="evenodd" clip-rule="evenodd" d="M510.416 557.341C516.982 548.748 528.11 539.292 535.689 535.822C543.938 532.173 545.28 531.813 553.018 531.177C567.571 530.034 583.183 535.079 597.004 545.52C614.295 558.626 619.95 567.659 618.092 579.066C616.33 589.487 605.985 598.734 596.158 598.73C588.351 598.665 583.346 596.531 576.187 589.938C567.178 581.804 558.397 577.205 555.282 578.999C551.088 581.682 546.279 587.886 543.059 595.102C536.775 608.774 533.321 613.775 528.009 616.757C513.74 624.778 495.163 615.372 493.235 599.227C492.24 590.143 500.225 570.741 510.416 557.341Z" fill="#14120B"/>
<path d="M3554.74 638.945C3555.06 638.513 3555.44 638.051 3555.87 637.585C3555.53 637.946 3555.26 638.272 3555.05 638.535C3554.94 638.678 3554.84 638.816 3554.74 638.945ZM3554.74 638.945C3554.67 639.049 3554.6 639.148 3554.53 639.241C3554.6 639.144 3554.67 639.045 3554.74 638.945ZM3549.93 659.81C3549.64 660.134 3549.41 660.424 3549.23 660.659C3549.04 660.908 3548.87 661.14 3548.74 661.344C3549.06 660.873 3549.45 660.346 3549.93 659.81ZM3549.93 659.81C3550 659.724 3550.08 659.635 3550.17 659.545C3550.09 659.633 3550.01 659.722 3549.93 659.81ZM3503.86 801.159C3503.9 801.2 3503.99 801.289 3504.16 801.411C3504.56 801.689 3505.22 802.01 3506.09 802.195C3508.08 802.616 3509.24 802.032 3509.43 801.889L3509.5 801.832L3509.57 801.776C3510.65 800.962 3511 800.639 3511.09 800.55C3511.17 800.423 3511.43 799.978 3511.85 798.914C3513.39 795.014 3515.28 787.84 3519.35 771.432L3519.35 771.406C3520.19 768.075 3522.73 758.166 3525.1 749.238C3527.44 740.444 3529.94 730.68 3530.74 727.507C3531.57 724.177 3534.11 714.267 3536.48 705.339C3538.83 696.53 3541.95 684.28 3543.36 678.183L3543.4 678.006L3543.44 677.83C3544.26 674.655 3545.02 671.689 3545.61 669.481C3545.9 668.39 3546.17 667.4 3546.39 666.635C3546.5 666.274 3546.63 665.823 3546.77 665.389C3546.83 665.213 3546.95 664.869 3547.11 664.46C3547.22 664.059 3547.39 663.454 3547.6 662.65C3548.08 660.814 3548.72 658.243 3549.38 655.392L3549.41 655.273L3549.44 655.156C3550.16 652.276 3550.84 649.503 3551.36 647.465C3551.62 646.454 3551.87 645.515 3552.07 644.784C3552.16 644.441 3552.29 643.99 3552.43 643.547C3552.48 643.41 3552.56 643.167 3552.67 642.866C3552.77 642.5 3552.92 641.951 3553.1 641.241C3553.51 639.681 3554.05 637.53 3554.59 635.224L3554.61 635.11L3554.64 634.995C3556.61 627.112 3560.29 612.798 3563.73 600.021L3563.77 599.888C3565.42 593.966 3570.76 573.136 3572.82 564.935L3573.47 562.273C3574.15 559.347 3575.42 555.074 3575.7 554.042L3575.81 553.641L3575.94 553.245C3576.72 550.9 3576.86 549.14 3575.28 546.053C3575.07 545.881 3574.84 545.695 3574.59 545.509C3574.36 545.33 3574.13 545.168 3573.91 545.022C3573.77 544.973 3573.01 544.684 3571.47 544.592C3569.57 544.478 3567.31 544.721 3565.14 545.399L3565.13 545.399C3561.45 546.585 3549.83 549.601 3539.56 552.207L3539.49 552.223L3539.43 552.239L3535.51 553.213C3531.69 554.173 3528.26 555.08 3525.59 555.822C3523.86 556.301 3522.54 556.687 3521.66 556.959C3519.2 558.194 3516.41 558.841 3513.58 558.73C3513.52 558.751 3513.46 558.772 3513.41 558.791C3512.13 559.225 3510.76 559.65 3509.71 559.973L3509.2 560.131L3508.67 560.251L3507.64 560.497C3504.53 561.25 3496.72 563.206 3488.84 565.213C3479.61 567.561 3471.37 569.562 3468.88 570.204C3468.16 570.407 3467.31 570.672 3466.56 570.926C3466.18 571.057 3465.88 571.164 3465.69 571.237L3465.6 571.283L3465.2 571.456C3463.67 572.111 3461.62 572.791 3459.26 573.042C3458.71 573.101 3458.02 573.147 3457.24 573.141C3456.02 573.519 3454.53 573.957 3452.87 574.424C3449.04 575.502 3443.95 576.852 3438.46 578.216C3433.15 579.584 3428.28 580.877 3424.72 581.867C3423.01 582.344 3421.7 582.725 3420.82 582.995C3418.39 584.208 3415.63 584.848 3412.85 584.75C3410.97 585.377 3408.83 586.019 3406.93 586.506L3406.88 586.519L3406.83 586.531L3390.66 590.581C3378.02 593.754 3373.33 594.953 3370.69 595.629C3368.57 596.271 3365.63 597.104 3363.61 597.603C3362.66 597.879 3361.69 598.14 3360.8 598.349C3360.61 598.394 3359.33 598.722 3357.75 598.899C3357.59 598.937 3357.4 598.985 3357.17 599.045C3356.91 599.116 3356.64 599.193 3356.37 599.274L3355.96 599.398L3355.53 599.499L3354.99 599.634C3353.57 599.997 3351.19 600.669 3349.48 601.194L3349.16 601.293L3348.83 601.378C3347.17 601.809 3342.28 603.069 3336.72 604.469L3331.03 605.891C3324.66 607.506 3322.5 608.17 3321.37 608.663C3321.08 608.791 3321.05 608.827 3321.02 608.842C3320.9 608.937 3320.58 609.186 3319.75 609.984C3318.49 611.269 3318.21 612.229 3318.14 612.749C3318.07 613.278 3318.07 614.398 3319.1 616.215L3319.14 616.281L3319.18 616.349C3319.19 616.381 3319.21 616.408 3319.22 616.431C3319.44 616.578 3319.97 616.913 3321.07 617.408C3324.72 619.051 3331.21 621.075 3344.17 624.542C3346.37 625.103 3348.41 625.669 3349.99 626.134C3350.78 626.366 3351.55 626.601 3352.19 626.818C3352.5 626.918 3352.93 627.068 3353.4 627.248C3353.51 627.291 3353.67 627.358 3353.88 627.446C3353.9 627.453 3353.92 627.46 3353.95 627.467C3354.58 627.67 3355.56 627.971 3356.86 628.359C3359.42 629.127 3362.97 630.165 3366.91 631.29C3374.85 633.5 3385.62 636.6 3390.86 638.18C3395.49 639.578 3405.71 642.527 3415.79 645.508L3420.08 646.784C3431.51 650.083 3439.38 652.491 3444.85 654.526C3450.1 656.48 3455.08 658.748 3459 662.662C3461.34 665.003 3462.82 667.801 3463.61 669.394C3464.58 671.354 3465.51 673.587 3466.38 675.915C3468.13 680.596 3470.01 686.574 3471.94 693.444L3471.94 693.473L3471.95 693.502C3475.58 706.642 3476.68 710.42 3478.98 717.94C3480.41 722.575 3482.24 728.883 3483.15 732.118C3484.02 735.224 3485.77 741.272 3487.11 745.579C3488.54 750.233 3490.39 756.768 3491.33 760.081C3492.54 764.109 3493.66 768.318 3494.71 771.652L3494.82 771.973L3494.9 772.299C3495.73 775.383 3497.7 782.092 3499.25 787.218C3500.02 789.771 3500.74 792.074 3501.37 794.141C3501.66 795.115 3501.95 796.057 3502.17 796.833C3502.28 797.216 3502.4 797.655 3502.51 798.088C3502.52 798.132 3502.55 798.239 3502.58 798.395C3502.62 798.476 3502.65 798.573 3502.7 798.685C3502.96 799.319 3503.33 800.132 3503.74 800.916L3503.82 801.077L3503.86 801.159ZM3554.47 639.331C3554.44 639.378 3554.41 639.423 3554.38 639.466C3554.36 639.49 3554.34 639.515 3554.33 639.539C3554.37 639.471 3554.42 639.402 3554.47 639.331ZM3356.5 598.999C3356.53 598.997 3356.57 598.994 3356.6 598.993C3356.54 598.995 3356.49 598.998 3356.43 599C3356.46 598.999 3356.48 599 3356.5 598.999ZM3358.3 630.281C3358.3 630.272 3358.29 630.263 3358.28 630.254C3358.29 630.263 3358.3 630.272 3358.3 630.281ZM3358.07 630.076C3357.98 629.994 3357.89 629.914 3357.8 629.838C3357.89 629.914 3357.98 629.995 3358.07 630.076ZM3357.5 629.597C3357.46 629.561 3357.42 629.526 3357.37 629.492C3357.42 629.526 3357.46 629.562 3357.5 629.597ZM3357.05 629.243C3357.02 629.226 3357 629.208 3356.98 629.192C3357 629.209 3357.02 629.226 3357.05 629.243Z" stroke="#14120B" stroke-width="30"/>
<rect x="2529" y="339" width="1227" height="679" rx="95" stroke="#14120B" stroke-width="30"/>
<path d="M2929.5 780.5C2929.5 800 2948.5 803 2948.5 813.5V815C2948.5 819.5 2945.5 822 2940 822H2888C2882 822 2878.5 818 2878 812.5L2876.5 795C2860 816 2834 827 2806.5 827C2745.5 827 2690 779.5 2690 701.5C2690 628 2742 577 2807.5 577C2834.5 577 2857 587 2873 602.5V508.5C2873 486.5 2850 486 2850 475V474C2850 469.5 2853.5 466 2859 464L2912 447C2924 443 2929.5 446 2929.5 456V780.5ZM2820 808C2844.5 808 2873 787 2873 743.5V663.5C2873 631.5 2844.5 596 2809.5 596C2772.5 596 2748 628 2747 681C2745.5 749 2774.5 807 2820 808ZM3112.6 827C3027.6 827 2977.1 766 2977.1 699.5C2977.1 628.5 3032.6 577 3101.1 577C3180.1 577 3233.1 634.5 3233.1 703.5C3233.1 772 3185.1 827 3112.6 827ZM3120.1 808C3151.1 808 3174.1 778 3174.1 724C3174.1 654 3140.6 596 3094.6 596C3059.1 596 3036.1 625 3036.1 680C3036.1 742 3069.6 808 3120.1 808Z" fill="#14120B"/>
<path d="M1845.5 650.5C1852 650.5 1856.5 653 1856.5 657.5V659C1856.5 670 1828.5 672 1828.5 693V819C1828.5 824.5 1825 829 1819.5 829C1815.5 829 1811.5 828 1808.5 824L1793.5 795.5C1769 816.5 1730 829 1693.5 829C1594.5 829 1519.5 744 1519.5 645C1519.5 535.5 1602.5 464.5 1688 464.5C1772.5 464.5 1829 515.5 1829 556.5C1829 573.5 1818.5 584.5 1801.5 584.5C1755 584.5 1751.5 490 1672 490C1622.5 490 1580.5 541 1580.5 607.5C1580.5 707.5 1641 785 1711 785C1737 785 1758.5 780 1772 769.5V692.5C1772 672 1740.5 670 1740.5 658.5V657C1740.5 653 1745 650 1751.5 650L1845.5 650.5ZM2083.84 750.5C2089.34 743.5 2100.84 745.5 2099.84 755.5C2095.34 785 2064.84 829 2002.34 829C1928.84 829 1877.84 778 1877.84 702C1877.84 629 1930.34 579.5 1998.84 579C2051.34 578.5 2090.84 602.5 2090.84 647C2090.84 684 2056.84 710 2010.34 720C1983.34 726 1958.84 724.5 1937.84 722.5C1950.34 761.5 1978.84 787 2017.84 787C2051.34 787 2073.84 770.5 2083.84 750.5ZM1990.34 599C1954.84 599 1931.34 633 1931.34 676.5C1931.34 685 1931.84 693 1932.84 700.5C1952.84 702 1979.34 701.5 1999.34 697.5C2019.84 693 2035.34 681.5 2034.84 647C2034.34 621 2016.84 599 1990.34 599ZM2261.86 829C2176.86 829 2126.36 768 2126.36 701.5C2126.36 630.5 2181.86 579 2250.36 579C2329.36 579 2382.36 636.5 2382.36 705.5C2382.36 774 2334.36 829 2261.86 829ZM2269.36 810C2300.36 810 2323.36 780 2323.36 726C2323.36 656 2289.86 598 2243.86 598C2208.36 598 2185.36 627 2185.36 682C2185.36 744 2218.86 810 2269.36 810Z" fill="#14120B"/>
</svg>
