<svg width="2269" height="711" viewBox="0 0 2269 711" fill="none" xmlns="http://www.w3.org/2000/svg">
<path d="M2052.74 316.945C2053.06 316.513 2053.44 316.051 2053.87 315.585C2053.53 315.946 2053.26 316.272 2053.05 316.535C2052.94 316.678 2052.84 316.816 2052.74 316.945ZM2052.74 316.945C2052.67 317.049 2052.6 317.148 2052.53 317.241C2052.6 317.144 2052.67 317.045 2052.74 316.945ZM2047.93 337.81C2047.64 338.134 2047.41 338.424 2047.23 338.659C2047.04 338.908 2046.87 339.14 2046.74 339.344C2047.06 338.873 2047.45 338.346 2047.93 337.81ZM2047.93 337.81C2048 337.724 2048.08 337.635 2048.17 337.545C2048.09 337.633 2048.01 337.722 2047.93 337.81ZM2001.86 479.159C2001.9 479.2 2001.99 479.289 2002.16 479.411C2002.56 479.689 2003.22 480.01 2004.09 480.195C2006.08 480.616 2007.24 480.032 2007.43 479.889L2007.5 479.832L2007.57 479.776C2008.65 478.962 2009 478.639 2009.09 478.55C2009.17 478.423 2009.43 477.978 2009.85 476.914C2011.39 473.014 2013.28 465.84 2017.35 449.432L2017.35 449.406C2018.19 446.075 2020.73 436.166 2023.1 427.238C2025.44 418.444 2027.94 408.68 2028.74 405.507C2029.57 402.177 2032.11 392.267 2034.48 383.339C2036.83 374.53 2039.95 362.28 2041.36 356.183L2041.4 356.006L2041.44 355.83C2042.26 352.655 2043.02 349.689 2043.61 347.481C2043.9 346.39 2044.17 345.4 2044.39 344.635C2044.5 344.274 2044.63 343.823 2044.77 343.389C2044.83 343.213 2044.95 342.869 2045.11 342.46C2045.22 342.059 2045.39 341.454 2045.6 340.65C2046.08 338.814 2046.72 336.243 2047.38 333.392L2047.41 333.273L2047.44 333.156C2048.16 330.276 2048.84 327.503 2049.36 325.465C2049.62 324.454 2049.87 323.515 2050.07 322.784C2050.16 322.441 2050.29 321.99 2050.43 321.547C2050.48 321.41 2050.56 321.167 2050.67 320.866C2050.77 320.5 2050.92 319.951 2051.1 319.241C2051.51 317.681 2052.05 315.53 2052.59 313.224L2052.61 313.11L2052.64 312.995C2054.61 305.112 2058.29 290.798 2061.73 278.021L2061.77 277.888C2063.42 271.966 2068.76 251.136 2070.82 242.935L2071.47 240.273C2072.15 237.347 2073.42 233.074 2073.7 232.042L2073.81 231.641L2073.94 231.245C2074.72 228.9 2074.86 227.14 2073.28 224.053C2073.07 223.881 2072.84 223.695 2072.59 223.509C2072.36 223.33 2072.13 223.168 2071.91 223.022C2071.77 222.973 2071.01 222.684 2069.47 222.592C2067.57 222.478 2065.31 222.721 2063.14 223.399L2063.13 223.399C2059.45 224.585 2047.83 227.601 2037.56 230.207L2037.49 230.223L2037.43 230.239L2033.51 231.213C2029.69 232.173 2026.26 233.08 2023.59 233.822C2021.86 234.301 2020.54 234.687 2019.66 234.959C2017.2 236.194 2014.41 236.841 2011.58 236.73C2011.52 236.751 2011.46 236.772 2011.41 236.791C2010.13 237.225 2008.76 237.65 2007.71 237.973L2007.2 238.131L2006.67 238.251L2005.64 238.497C2002.53 239.25 1994.72 241.206 1986.84 243.213C1977.61 245.561 1969.37 247.562 1966.88 248.204C1966.16 248.407 1965.31 248.672 1964.56 248.926C1964.18 249.057 1963.88 249.164 1963.69 249.237L1963.6 249.283L1963.2 249.456C1961.67 250.111 1959.62 250.791 1957.26 251.042C1956.71 251.101 1956.02 251.147 1955.24 251.141C1954.02 251.519 1952.53 251.957 1950.87 252.424C1947.04 253.502 1941.95 254.852 1936.46 256.216C1931.15 257.584 1926.28 258.877 1922.72 259.867C1921.01 260.344 1919.7 260.725 1918.82 260.995C1916.39 262.208 1913.63 262.848 1910.85 262.75C1908.97 263.377 1906.83 264.019 1904.93 264.506L1904.88 264.519L1904.83 264.531L1888.66 268.581C1876.02 271.754 1871.33 272.953 1868.69 273.629C1866.57 274.271 1863.63 275.104 1861.61 275.603C1860.66 275.879 1859.69 276.14 1858.8 276.349C1858.61 276.394 1857.33 276.722 1855.75 276.899C1855.59 276.937 1855.4 276.985 1855.17 277.045C1854.91 277.116 1854.64 277.193 1854.37 277.274L1853.96 277.398L1853.53 277.499L1852.99 277.634C1851.57 277.997 1849.19 278.669 1847.48 279.194L1847.16 279.293L1846.83 279.378C1845.17 279.809 1840.28 281.069 1834.72 282.469L1829.03 283.891C1822.66 285.506 1820.5 286.17 1819.37 286.663C1819.08 286.791 1819.05 286.827 1819.02 286.842C1818.9 286.937 1818.58 287.186 1817.75 287.984C1816.49 289.269 1816.21 290.229 1816.14 290.749C1816.07 291.278 1816.07 292.398 1817.1 294.215L1817.14 294.281L1817.18 294.349C1817.19 294.381 1817.21 294.408 1817.22 294.431C1817.44 294.578 1817.97 294.913 1819.07 295.408C1822.72 297.051 1829.21 299.075 1842.17 302.542C1844.37 303.103 1846.41 303.669 1847.99 304.134C1848.78 304.366 1849.55 304.601 1850.19 304.818C1850.5 304.918 1850.93 305.068 1851.4 305.248C1851.51 305.291 1851.67 305.358 1851.88 305.446C1851.9 305.453 1851.92 305.46 1851.95 305.467C1852.58 305.67 1853.56 305.971 1854.86 306.359C1857.42 307.127 1860.97 308.165 1864.91 309.29C1872.85 311.5 1883.62 314.6 1888.86 316.18C1893.49 317.578 1903.71 320.527 1913.79 323.508L1918.08 324.784C1929.51 328.083 1937.38 330.491 1942.85 332.526C1948.1 334.48 1953.08 336.748 1957 340.662C1959.34 343.003 1960.82 345.801 1961.61 347.394C1962.58 349.354 1963.51 351.587 1964.38 353.915C1966.13 358.596 1968.01 364.574 1969.94 371.444L1969.94 371.473L1969.95 371.502C1973.58 384.642 1974.68 388.42 1976.98 395.94C1978.41 400.575 1980.24 406.883 1981.15 410.118C1982.02 413.224 1983.77 419.272 1985.11 423.579C1986.54 428.233 1988.39 434.768 1989.33 438.081C1990.54 442.109 1991.66 446.318 1992.71 449.652L1992.82 449.973L1992.9 450.299C1993.73 453.383 1995.7 460.092 1997.25 465.218C1998.02 467.771 1998.74 470.074 1999.37 472.141C1999.66 473.115 1999.95 474.057 2000.17 474.833C2000.28 475.216 2000.4 475.655 2000.51 476.088C2000.52 476.132 2000.55 476.239 2000.58 476.395C2000.62 476.476 2000.65 476.573 2000.7 476.685C2000.96 477.319 2001.33 478.132 2001.74 478.916L2001.82 479.077L2001.86 479.159ZM2052.47 317.331C2052.44 317.378 2052.41 317.423 2052.38 317.466C2052.36 317.49 2052.34 317.515 2052.33 317.539C2052.37 317.471 2052.42 317.402 2052.47 317.331ZM1854.5 276.999C1854.53 276.997 1854.57 276.994 1854.6 276.993C1854.54 276.995 1854.49 276.998 1854.43 277C1854.46 276.999 1854.48 277 1854.5 276.999ZM1856.3 308.281C1856.3 308.272 1856.29 308.263 1856.28 308.254C1856.29 308.263 1856.3 308.272 1856.3 308.281ZM1856.07 308.076C1855.98 307.994 1855.89 307.914 1855.8 307.838C1855.89 307.914 1855.98 307.995 1856.07 308.076ZM1855.5 307.597C1855.46 307.561 1855.42 307.526 1855.37 307.492C1855.42 307.526 1855.46 307.562 1855.5 307.597ZM1855.05 307.243C1855.02 307.226 1855 307.208 1854.98 307.192C1855 307.209 1855.02 307.226 1855.05 307.243Z" stroke="#14120B" stroke-width="30"/>
<rect x="1027" y="17" width="1227" height="679" rx="95" stroke="#14120B" stroke-width="30"/>
<path d="M1427.5 458.5C1427.5 478 1446.5 481 1446.5 491.5V493C1446.5 497.5 1443.5 500 1438 500H1386C1380 500 1376.5 496 1376 490.5L1374.5 473C1358 494 1332 505 1304.5 505C1243.5 505 1188 457.5 1188 379.5C1188 306 1240 255 1305.5 255C1332.5 255 1355 265 1371 280.5V186.5C1371 164.5 1348 164 1348 153V152C1348 147.5 1351.5 144 1357 142L1410 125C1422 121 1427.5 124 1427.5 134V458.5ZM1318 486C1342.5 486 1371 465 1371 421.5V341.5C1371 309.5 1342.5 274 1307.5 274C1270.5 274 1246 306 1245 359C1243.5 427 1272.5 485 1318 486ZM1610.6 505C1525.6 505 1475.1 444 1475.1 377.5C1475.1 306.5 1530.6 255 1599.1 255C1678.1 255 1731.1 312.5 1731.1 381.5C1731.1 450 1683.1 505 1610.6 505ZM1618.1 486C1649.1 486 1672.1 456 1672.1 402C1672.1 332 1638.6 274 1592.6 274C1557.1 274 1534.1 303 1534.1 358C1534.1 420 1567.6 486 1618.1 486Z" fill="#14120B"/>
<path d="M343.5 328.5C350 328.5 354.5 331 354.5 335.5V337C354.5 348 326.5 350 326.5 371V497C326.5 502.5 323 507 317.5 507C313.5 507 309.5 506 306.5 502L291.5 473.5C267 494.5 228 507 191.5 507C92.5 507 17.5 422 17.5 323C17.5 213.5 100.5 142.5 186 142.5C270.5 142.5 327 193.5 327 234.5C327 251.5 316.5 262.5 299.5 262.5C253 262.5 249.5 168 170 168C120.5 168 78.5 219 78.5 285.5C78.5 385.5 139 463 209 463C235 463 256.5 458 270 447.5V370.5C270 350 238.5 348 238.5 336.5V335C238.5 331 243 328 249.5 328L343.5 328.5ZM581.84 428.5C587.34 421.5 598.84 423.5 597.84 433.5C593.34 463 562.84 507 500.34 507C426.84 507 375.84 456 375.84 380C375.84 307 428.34 257.5 496.84 257C549.34 256.5 588.84 280.5 588.84 325C588.84 362 554.84 388 508.34 398C481.34 404 456.84 402.5 435.84 400.5C448.34 439.5 476.84 465 515.84 465C549.34 465 571.84 448.5 581.84 428.5ZM488.34 277C452.84 277 429.34 311 429.34 354.5C429.34 363 429.84 371 430.84 378.5C450.84 380 477.34 379.5 497.34 375.5C517.84 371 533.34 359.5 532.84 325C532.34 299 514.84 277 488.34 277ZM759.863 507C674.863 507 624.363 446 624.363 379.5C624.363 308.5 679.863 257 748.363 257C827.363 257 880.363 314.5 880.363 383.5C880.363 452 832.363 507 759.863 507ZM767.363 488C798.363 488 821.363 458 821.363 404C821.363 334 787.863 276 741.863 276C706.363 276 683.363 305 683.363 360C683.363 422 716.863 488 767.363 488Z" fill="#14120B"/>
</svg>
