<svg width="1519" height="1542" viewBox="0 0 1519 1542" fill="none" xmlns="http://www.w3.org/2000/svg">
<path d="M874.693 163.023C1095.59 132.957 1200.66 179.578 1270.5 442.348C1426.72 605.635 1454.05 705.732 1359.46 904.598C1373.52 1142.5 1308.74 1223.93 1095.51 1294.36C933.221 1472.27 832.264 1493.23 633.26 1383.33C391.347 1389.95 314.912 1321.27 243.494 1119.37C87.9916 983.508 47.5119 879.755 154.532 657.123C143.082 434.675 193.304 332.642 412.443 251.986C540.063 101.909 645.32 90.2599 874.693 163.023Z" fill="#14120B"/>
<path fill-rule="evenodd" clip-rule="evenodd" d="M1016.61 790.429C1025.33 798.238 1031.46 803.593 1032.59 802.238C1141.42 659.775 962.064 311.742 782.522 500.161C708.388 464 612.804 438.315 538.208 486.068C414.226 565.827 432.558 747.436 544.98 826.687C568.057 842.798 619.576 865.969 619.576 865.969C619.576 865.969 659.066 768.001 704.627 768.001C712.231 768.001 708.795 774.113 693.785 800.811L692.982 802.238C613.408 944.221 644.272 1128.68 830.523 1175.94C994.096 1216.72 1099.11 1024.86 1047.2 902.136C1031.81 865.889 986.216 802.811 953.602 768.001C952.386 766.704 951.11 765.392 949.856 764.109C944.457 758.571 939.506 753.486 941.688 751.591C957.762 737.635 993.204 769.432 1014.83 788.836C1015.44 789.377 1016.03 789.907 1016.61 790.429Z" fill="#FEF6E2" fill-opacity="0.9"/>
<path fill-rule="evenodd" clip-rule="evenodd" d="M818.799 845.008C785.067 808.174 725.084 821.912 770.922 869.565C807.204 907.284 854.085 899.733 818.799 845.008Z" fill="#14120B"/>
<path fill-rule="evenodd" clip-rule="evenodd" d="M905.596 812.67C923.121 829.69 873.899 899.446 855.345 883.704C821.441 854.945 882.392 790.135 905.596 812.67Z" fill="#14120B"/>
<path fill-rule="evenodd" clip-rule="evenodd" d="M847.166 595.994C854.413 586.512 866.696 576.078 875.062 572.25C884.168 568.222 885.649 567.826 894.191 567.124C910.254 565.862 927.486 571.43 942.742 582.95C961.828 597.412 968.07 607.379 966.02 619.965C964.075 631.465 952.655 641.668 941.808 641.664C933.191 641.592 927.666 639.237 919.765 631.963C909.82 622.987 900.128 617.913 896.69 619.892C892.06 622.852 886.751 629.698 883.197 637.66C876.261 652.746 872.449 658.265 866.585 661.556C850.835 670.405 830.33 660.027 828.201 642.212C827.103 632.189 835.917 610.78 847.166 595.994Z" fill="#14120B"/>
<path fill-rule="evenodd" clip-rule="evenodd" d="M847.166 595.994C854.413 586.512 866.696 576.078 875.062 572.25C884.168 568.222 885.649 567.826 894.191 567.124C910.254 565.862 927.486 571.43 942.742 582.95C961.828 597.412 968.07 607.379 966.02 619.965C964.075 631.465 952.655 641.668 941.808 641.664C933.191 641.592 927.666 639.237 919.765 631.963C909.82 622.987 900.128 617.913 896.69 619.892C892.06 622.852 886.751 629.698 883.197 637.66C876.261 652.746 872.449 658.265 866.585 661.556C850.835 670.405 830.33 660.027 828.201 642.212C827.103 632.189 835.917 610.78 847.166 595.994Z" fill="#14120B"/>
<path fill-rule="evenodd" clip-rule="evenodd" d="M580.911 634.099C588.384 624.323 601.049 613.565 609.674 609.617C619.063 605.465 620.59 605.056 629.398 604.332C645.96 603.031 663.728 608.772 679.458 620.65C699.138 635.561 705.574 645.839 703.459 658.816C701.454 670.673 689.68 681.193 678.495 681.189C669.61 681.115 663.914 678.686 655.767 671.186C645.513 661.932 635.519 656.699 631.975 658.74C627.201 661.792 621.727 668.851 618.063 677.061C610.911 692.615 606.98 698.306 600.934 701.699C584.695 710.823 563.552 700.123 561.358 681.753C560.225 671.419 569.313 649.345 580.911 634.099Z" fill="#14120B"/>
<path fill-rule="evenodd" clip-rule="evenodd" d="M580.911 634.099C588.384 624.323 601.049 613.565 609.674 609.617C619.063 605.465 620.59 605.056 629.398 604.332C645.96 603.031 663.728 608.772 679.458 620.65C699.138 635.561 705.574 645.839 703.459 658.816C701.454 670.673 689.68 681.193 678.495 681.189C669.61 681.115 663.914 678.686 655.767 671.186C645.513 661.932 635.519 656.699 631.975 658.74C627.201 661.792 621.727 668.851 618.063 677.061C610.911 692.615 606.98 698.306 600.934 701.699C584.695 710.823 563.552 700.123 561.358 681.753C560.225 671.419 569.313 649.345 580.911 634.099Z" fill="#14120B"/>
</svg>
